<svg width="491" height="223" viewBox="0 0 491 223" fill="none" xmlns="http://www.w3.org/2000/svg">
<path d="M491 205C491 214.941 482.88 223.205 473.017 221.956C440.935 217.891 435.031 203.352 392.797 203.352C343.699 203.352 343.691 223 294.594 223C245.496 223 245.496 203.352 196.398 203.352C147.301 203.352 147.293 223 98.1952 223C55.9621 223 50.0574 208.462 17.9826 204.397C8.1204 203.147 0 195.294 0 185.352V18C0 8.05887 8.1204 -0.205125 17.9826 1.0448C50.0574 5.10992 55.9621 19.6476 98.1952 19.6476C147.293 19.6476 147.293 0 196.398 0C245.504 0 245.496 19.6476 294.594 19.6476C343.691 19.6476 343.691 0 392.797 0C435.038 0 440.937 14.5384 473.017 18.6031C482.88 19.8527 491 27.7065 491 37.6476V205Z" fill="white"/>
</svg>
